<svg xmlns="http://www.w3.org/2000/svg" viewBox="0 0 1338.79 483.09"><defs><style>.cls-1{fill:#fff;}.cls-2{fill:#4c4c4c;}.cls-3{fill:#df2b35;}.cls-4{fill:#037cd5;}</style></defs><title>Asset 7</title><g id="Layer_2" data-name="Layer 2"><g id="Layer_1-2" data-name="Layer 1"><rect class="cls-1" width="1338.79" height="483.09"/><path class="cls-2" d="M201.47,200.63c-14.8,0-26.09,3.5-33.88,10.39a3.72,3.72,0,0,1-6.2-2.76V153.42c0-9.81-2.45-12.27-12.27-12.27h-3.27c-9.81,0-12.27,2.46-12.27,12.27V283.51c0,38.44,22.63,58.35,62.16,58.35,41.72,0,62.44-19.36,62.44-58.35V260.06C258.18,220.53,239.37,200.63,201.47,200.63ZM230.1,283c0,23.72-7.91,32.44-34.08,32.44s-34.63-9.27-34.63-32.44V259.52c0-23.72,8.72-32.72,34.63-32.72s34.08,9,34.08,32.72Z"/><path class="cls-2" d="M783.18,200.63c-14.79,0-26.08,3.5-33.87,10.39a3.73,3.73,0,0,1-6.21-2.76V153.42c0-9.81-2.45-12.27-12.27-12.27h-3.27c-9.81,0-12.27,2.46-12.27,12.27V283.51c0,38.44,22.63,58.35,62.17,58.35,41.71,0,62.43-19.36,62.43-58.35V260.06C839.89,220.53,821.08,200.63,783.18,200.63ZM811.81,283c0,23.72-7.91,32.44-34.08,32.44S743.1,306.14,743.1,283V259.52c0-23.72,8.73-32.72,34.63-32.72s34.08,9,34.08,32.72Z"/><path class="cls-2" d="M688.51,202.79c-1.68-1.84-4.33-2.6-9.14-2.6h-3.59c-5.07,0-8,.84-10,2.89s-3.08,5-3.76,10.6l-11.26,89.39c-.58,4.81-1.44,7.86-2.71,9.6-1.58,2.17-4.83,2.67-7.31,2a5.13,5.13,0,0,1-2.33-1.27c-1.73-1.72-1.59-4.42-2-6.64-.23-1.29-9-68.27-9-68.27-1.42-10.43-3.88-17-8-21.3s-12.21-6.42-21-6.42h-.24c-8.77,0-16.8,2-21,6.42s-6.57,10.87-8,21.3c0,0-8.74,67-9,68.27-.4,2.22-.26,4.92-2,6.64a5.13,5.13,0,0,1-2.33,1.27c-2.48.64-5.73.14-7.31-2-1.27-1.74-2.13-4.79-2.71-9.6l-11.26-89.39c-.68-5.55-1.77-8.62-3.76-10.6s-5-2.89-10-2.89h-3.59c-4.81,0-7.46.76-9.14,2.6-2.15,2.36-2.17,6.21-1.55,11.27l11.74,90.72a80.58,80.58,0,0,0,3.56,16.81,32.19,32.19,0,0,0,6.66,11.63c5.54,5.95,13.6,8.72,25.36,8.72,10.56,0,18.28-2.79,23.24-8.79,4.73-5.71,5.58-14.46,7.26-28.36l8.14-57.26c1.26-9.93,3.73-9.93,5.66-9.93h.24c1.93,0,4.4,0,5.66,9.93l8.14,57.26c1.68,13.9,2.53,22.65,7.26,28.36,5,6,12.68,8.79,23.24,8.79,11.76,0,19.82-2.77,25.36-8.72a32.19,32.19,0,0,0,6.66-11.63,80.58,80.58,0,0,0,3.56-16.81l11.74-90.72C690.68,209,690.66,205.15,688.51,202.79Z"/><path class="cls-3" d="M1198.46,341.86h-14a16.57,16.57,0,0,1-12.18-4.94l-30.2-32.87-.74-.81a3.58,3.58,0,0,0-1.34-.89,4.49,4.49,0,0,0-3.12,0,3.58,3.58,0,0,0-1.34.89l-.74.81-30.2,32.87a16.57,16.57,0,0,1-12.18,4.94h-14c-5.54,0-8.71-5.09-5.41-8.67L1116.54,286c.26-.29.54-.56.81-.83a25.7,25.7,0,0,1,2-1.77c.72-.57,1.45-1.08,2.21-1.57a32.64,32.64,0,0,1,33.68,0,26.7,26.7,0,0,1,2.21,1.57,24,24,0,0,1,2,1.77c.28.27.54.54.8.83l43.59,47.16C1207.17,336.77,1204,341.86,1198.46,341.86Z"/><path class="cls-4" d="M1198.46,200.71h-14a16.57,16.57,0,0,0-12.18,4.94l-30.2,32.87-.74.81a3.58,3.58,0,0,1-1.34.89,4.49,4.49,0,0,1-3.12,0,3.58,3.58,0,0,1-1.34-.89l-.74-.81-30.2-32.87a16.57,16.57,0,0,0-12.18-4.94h-14c-5.54,0-8.71,5.09-5.41,8.67,0,0,44.12,47.72,44.39,48,.64.63,1.32,1.22,2,1.78s1.45,1.07,2.21,1.56a32.64,32.64,0,0,0,33.68,0,26.7,26.7,0,0,0,2.21-1.57,24,24,0,0,0,2-1.77c.28-.27.54-.54.8-.83l43.59-47.16C1207.17,205.8,1204,200.71,1198.46,200.71Z"/><path class="cls-2" d="M1049.66,214.66c-13.06-12.51-32.31-13.95-45.66-13.95s-32.58,1.43-45.82,13.8-14.87,30.4-14.87,42.82v28.24c0,9.24.87,21.58,6.92,32.39A41,41,0,0,0,958,328c13.27,12.47,32.6,13.91,46,13.91,2.5,0,5.1-.05,7.77-.19,12.83-.67,27.16-3.46,37.8-13.52C1062.51,315.91,1064,298,1064,285.57V257.33C1064,244.92,1062.53,227,1049.66,214.66ZM1038,283c0,23.72-7.91,32.44-34.08,32.44s-34.63-9.27-34.63-32.44V259.52c0-23.72,8.73-32.72,34.63-32.72s34.08,9,34.08,32.72Z"/><path class="cls-2" d="M358.13,212.29v3.24c0,9.72-2.46,12.15-12.28,12.15h-8.23a25,25,0,0,0-25,25v77.78c-.15,9.07-2.72,11.38-12.14,11.38h-3.24c-9.72,0-12.15-2.46-12.15-12.28V251.15a51.06,51.06,0,0,1,51-51h9.78C355.67,200.14,358.13,202.57,358.13,212.29Z"/><path class="cls-2" d="M932.84,326.47v3.24c0,9.72-2.46,12.15-12.28,12.15h-2.78c-1.37,0-2.72-.05-4.06-.16a51.07,51.07,0,0,1-46.94-50.85s0-118.28,0-118.57c.15-9.07,2.72-11.38,12.14-11.38h3.24c9.42,0,12,2.31,12.14,11.38v117a25,25,0,0,0,25,25h2.13C930.53,314.48,932.84,317.05,932.84,326.47Z"/><path class="cls-2" d="M402.82,281.47h63c13.63,0,21.55-11.06,21.55-24.69v-2.19c-.8-35.78-20.74-54.45-58-54.45-40.52,0-60.78,19.72-60.78,59.42v23.82c0,17.92,4.49,36.73,20,47.46,8.27,5.71,18.39,8.38,28.22,9.87a110.15,110.15,0,0,0,32.73-.16,130.14,130.14,0,0,0,16.13-3.5c2.65-.75,5.27-1.59,7.86-2.5,2.28-.8,4.67-1.32,6.58-2.91,2.75-2.28,2.64-6.47,2.64-9.75v-3.56c0-3.58,0-8.41-3.86-10-4.65-1.94-11.83,1.15-16.38,2.46a111.55,111.55,0,0,1-27,4.73c-9.61.31-21.5-.68-29.43-6.63-6.68-5-9.28-13.26-9.28-21.35A6,6,0,0,1,402.82,281.47Zm-6-26.7v-3.15c0-18.07,10.68-27.11,31.76-27.11,21.63,0,32.31,9,32.31,27.11a6.85,6.85,0,0,1-6.84,6.85H400.49A3.7,3.7,0,0,1,396.8,254.77Z"/><path class="cls-2" d="M201.47,200.63c-14.8,0-26.09,3.5-33.88,10.39a3.72,3.72,0,0,1-6.2-2.76V153.42c0-9.81-2.45-12.27-12.27-12.27h-3.27c-9.81,0-12.27,2.46-12.27,12.27V283.51c0,38.44,22.63,58.35,62.16,58.35,41.72,0,62.44-19.36,62.44-58.35V260.06C258.18,220.53,239.37,200.63,201.47,200.63ZM230.1,283c0,23.72-7.91,32.44-34.08,32.44s-34.63-9.27-34.63-32.44V259.52c0-23.72,8.72-32.72,34.63-32.72s34.08,9,34.08,32.72Z"/></g></g></svg>