<svg xmlns="http://www.w3.org/2000/svg" viewBox="0 0 542.22 357.06">
  <defs>
    <style>
      .logo-red {
        fill: #df2b35;
      }

      .logo-blue {
        fill: #037cd5;
      }
    </style>
  </defs>
  <g>
    <path class="logo-red"
      d="M399.8,302.52H369.74c-10.31,0-20-3.93-26.1-10.6L278.9,221.48l-1.57-1.73a7.65,7.65,0,0,0-2.88-1.91,9.45,9.45,0,0,0-3.35-.59,9.35,9.35,0,0,0-3.33.59,7.58,7.58,0,0,0-2.88,1.91l-1.58,1.73-64.73,70.44c-6.11,6.67-15.8,10.6-26.1,10.6H142.42c-11.87,0-18.67-10.91-11.58-18.59l93.4-101.07c.55-.62,1.14-1.21,1.73-1.78a51.72,51.72,0,0,1,4.32-3.8,57,57,0,0,1,4.73-3.35,69.94,69.94,0,0,1,72.18,0,52.5,52.5,0,0,1,4.73,3.36,51.72,51.72,0,0,1,4.32,3.8c.59.58,1.16,1.15,1.72,1.77l93.41,101.07C418.47,291.61,411.67,302.52,399.8,302.52Z" />
    <path class="logo-blue"
      d="M399.8,0H369.74c-10.31,0-20,3.93-26.1,10.59L278.9,81l-1.57,1.74a7.77,7.77,0,0,1-2.88,1.91,9.68,9.68,0,0,1-3.35.59,9.57,9.57,0,0,1-3.33-.59,7.69,7.69,0,0,1-2.88-1.91L263.31,81,198.58,10.59C192.47,3.93,182.78,0,172.48,0H142.42c-11.87,0-18.67,10.9-11.58,18.58,0,0,94.54,102.28,95.13,102.86a51.72,51.72,0,0,0,4.32,3.8,57,57,0,0,0,4.73,3.35,69.94,69.94,0,0,0,72.18,0,52.61,52.61,0,0,0,4.73-3.37,51.6,51.6,0,0,0,4.32-3.79c.59-.58,1.16-1.16,1.72-1.78L411.38,18.58C418.47,10.9,411.67,0,399.8,0Z" />
  </g>
</svg>
