<?xml version="1.0" encoding="UTF-8" standalone="no"?>
<svg
   xmlns:dc="http://purl.org/dc/elements/1.1/"
   xmlns:cc="http://creativecommons.org/ns#"
   xmlns:rdf="http://www.w3.org/1999/02/22-rdf-syntax-ns#"
   xmlns:svg="http://www.w3.org/2000/svg"
   xmlns="http://www.w3.org/2000/svg"
   xmlns:sodipodi="http://sodipodi.sourceforge.net/DTD/sodipodi-0.dtd"
   xmlns:inkscape="http://www.inkscape.org/namespaces/inkscape"
   width="240.33929pt"
   height="205.97411pt"
   viewBox="0 0 84.786364 72.663085"
   version="1.1"
   id="svg3313"
   inkscape:version="1.0.1 (0767f8302a, 2020-10-17)"
   sodipodi:docname="3-phase.svg">
  <defs
     id="defs3307">
    <marker
       style="overflow:visible"
       id="marker1515-5"
       refX="0"
       refY="0"
       orient="auto"
       inkscape:stockid="DotM"
       inkscape:isstock="true">
      <path
         transform="matrix(0.4,0,0,0.4,2.96,0.4)"
         style="fill:#000000;fill-opacity:1;fill-rule:evenodd;stroke:#000000;stroke-width:1pt;stroke-opacity:1"
         d="m -2.5,-1 c 0,2.76 -2.24,5 -5,5 -2.76,0 -5,-2.24 -5,-5 0,-2.76 2.24,-5 5,-5 2.76,0 5,2.24 5,5 z"
         id="path1513-3" />
    </marker>
    <marker
       style="overflow:visible"
       id="marker1664-5"
       refX="0"
       refY="0"
       orient="auto"
       inkscape:stockid="DotM"
       inkscape:isstock="true">
      <path
         transform="matrix(0.4,0,0,0.4,2.96,0.4)"
         style="fill:#000000;fill-opacity:1;fill-rule:evenodd;stroke:#000000;stroke-width:1pt;stroke-opacity:1"
         d="m -2.5,-1 c 0,2.76 -2.24,5 -5,5 -2.76,0 -5,-2.24 -5,-5 0,-2.76 2.24,-5 5,-5 2.76,0 5,2.24 5,5 z"
         id="path1662-6" />
    </marker>
    <marker
       style="overflow:visible"
       id="TriangleInM"
       refX="0"
       refY="0"
       orient="auto"
       inkscape:stockid="TriangleInM"
       inkscape:isstock="true">
      <path
         transform="scale(-0.4)"
         style="fill:#000000;fill-opacity:1;fill-rule:evenodd;stroke:#000000;stroke-width:1pt;stroke-opacity:1"
         d="M 5.77,0 -2.88,5 V -5 Z"
         id="path985" />
    </marker>
    <marker
       style="overflow:visible"
       id="TriangleInM-1"
       refX="0"
       refY="0"
       orient="auto"
       inkscape:stockid="TriangleInM"
       inkscape:isstock="true">
      <path
         transform="scale(-0.4)"
         style="fill:#000000;fill-opacity:1;fill-rule:evenodd;stroke:#000000;stroke-width:1pt;stroke-opacity:1"
         d="M 5.77,0 -2.88,5 V -5 Z"
         id="path985-8" />
    </marker>
    <marker
       style="overflow:visible"
       id="marker1515-5-0"
       refX="0"
       refY="0"
       orient="auto"
       inkscape:stockid="DotM"
       inkscape:isstock="true">
      <path
         transform="matrix(0.4,0,0,0.4,2.96,0.4)"
         style="fill:#000000;fill-opacity:1;fill-rule:evenodd;stroke:#000000;stroke-width:1pt;stroke-opacity:1"
         d="m -2.5,-1 c 0,2.76 -2.24,5 -5,5 -2.76,0 -5,-2.24 -5,-5 0,-2.76 2.24,-5 5,-5 2.76,0 5,2.24 5,5 z"
         id="path1513-3-3" />
    </marker>
    <marker
       style="overflow:visible"
       id="marker1664-5-6"
       refX="0"
       refY="0"
       orient="auto"
       inkscape:stockid="DotM"
       inkscape:isstock="true">
      <path
         transform="matrix(0.4,0,0,0.4,2.96,0.4)"
         style="fill:#000000;fill-opacity:1;fill-rule:evenodd;stroke:#000000;stroke-width:1pt;stroke-opacity:1"
         d="m -2.5,-1 c 0,2.76 -2.24,5 -5,5 -2.76,0 -5,-2.24 -5,-5 0,-2.76 2.24,-5 5,-5 2.76,0 5,2.24 5,5 z"
         id="path1662-6-1" />
    </marker>
    <marker
       style="overflow:visible"
       id="marker1515-5-1"
       refX="0"
       refY="0"
       orient="auto"
       inkscape:stockid="DotM"
       inkscape:isstock="true">
      <path
         transform="matrix(0.4,0,0,0.4,2.96,0.4)"
         style="fill:#000000;fill-opacity:1;fill-rule:evenodd;stroke:#000000;stroke-width:1pt;stroke-opacity:1"
         d="m -2.5,-1 c 0,2.76 -2.24,5 -5,5 -2.76,0 -5,-2.24 -5,-5 0,-2.76 2.24,-5 5,-5 2.76,0 5,2.24 5,5 z"
         id="path1513-3-5" />
    </marker>
    <marker
       style="overflow:visible"
       id="marker1515-5-0-7"
       refX="0"
       refY="0"
       orient="auto"
       inkscape:stockid="DotM"
       inkscape:isstock="true">
      <path
         transform="matrix(0.4,0,0,0.4,2.96,0.4)"
         style="fill:#000000;fill-opacity:1;fill-rule:evenodd;stroke:#000000;stroke-width:1pt;stroke-opacity:1"
         d="m -2.5,-1 c 0,2.76 -2.24,5 -5,5 -2.76,0 -5,-2.24 -5,-5 0,-2.76 2.24,-5 5,-5 2.76,0 5,2.24 5,5 z"
         id="path1513-3-3-4" />
    </marker>
    <marker
       style="overflow:visible"
       id="marker1664-5-6-5"
       refX="0"
       refY="0"
       orient="auto"
       inkscape:stockid="DotM"
       inkscape:isstock="true">
      <path
         transform="matrix(0.4,0,0,0.4,2.96,0.4)"
         style="fill:#000000;fill-opacity:1;fill-rule:evenodd;stroke:#000000;stroke-width:1pt;stroke-opacity:1"
         d="m -2.5,-1 c 0,2.76 -2.24,5 -5,5 -2.76,0 -5,-2.24 -5,-5 0,-2.76 2.24,-5 5,-5 2.76,0 5,2.24 5,5 z"
         id="path1662-6-1-2" />
    </marker>
    <marker
       style="overflow:visible"
       id="marker1515-5-3"
       refX="0"
       refY="0"
       orient="auto"
       inkscape:stockid="DotM"
       inkscape:isstock="true">
      <path
         transform="matrix(0.4,0,0,0.4,2.96,0.4)"
         style="fill:#000000;fill-opacity:1;fill-rule:evenodd;stroke:#000000;stroke-width:1pt;stroke-opacity:1"
         d="m -2.5,-1 c 0,2.76 -2.24,5 -5,5 -2.76,0 -5,-2.24 -5,-5 0,-2.76 2.24,-5 5,-5 2.76,0 5,2.24 5,5 z"
         id="path1513-3-1" />
    </marker>
    <marker
       style="overflow:visible"
       id="TriangleInM-3"
       refX="0"
       refY="0"
       orient="auto"
       inkscape:stockid="TriangleInM"
       inkscape:isstock="true">
      <path
         transform="scale(-0.4)"
         style="fill:#000000;fill-opacity:1;fill-rule:evenodd;stroke:#000000;stroke-width:1pt;stroke-opacity:1"
         d="M 5.77,0 -2.88,5 V -5 Z"
         id="path985-6" />
    </marker>
    <marker
       style="overflow:visible"
       id="TriangleOutM"
       refX="0"
       refY="0"
       orient="auto"
       inkscape:stockid="TriangleOutM"
       inkscape:isstock="true">
      <path
         transform="scale(0.4)"
         style="fill:#000000;fill-opacity:1;fill-rule:evenodd;stroke:#000000;stroke-width:1pt;stroke-opacity:1"
         d="M 5.77,0 -2.88,5 V -5 Z"
         id="path1039" />
    </marker>
    <marker
       style="overflow:visible"
       id="TriangleInM-3-7"
       refX="0"
       refY="0"
       orient="auto"
       inkscape:stockid="TriangleInM"
       inkscape:isstock="true">
      <path
         transform="scale(-0.4)"
         style="fill:#000000;fill-opacity:1;fill-rule:evenodd;stroke:#000000;stroke-width:1pt;stroke-opacity:1"
         d="M 5.77,0 -2.88,5 V -5 Z"
         id="path985-6-5" />
    </marker>
    <marker
       style="overflow:visible"
       id="TriangleOutM-3"
       refX="0"
       refY="0"
       orient="auto"
       inkscape:stockid="TriangleOutM"
       inkscape:isstock="true">
      <path
         transform="scale(0.4)"
         style="fill:#000000;fill-opacity:1;fill-rule:evenodd;stroke:#000000;stroke-width:1pt;stroke-opacity:1"
         d="M 5.77,0 -2.88,5 V -5 Z"
         id="path1039-5" />
    </marker>
  </defs>
  <sodipodi:namedview
     id="base"
     pagecolor="#ffffff"
     bordercolor="#666666"
     borderopacity="1.0"
     inkscape:pageopacity="0.0"
     inkscape:pageshadow="2"
     inkscape:zoom="2.8284271"
     inkscape:cx="324.5327"
     inkscape:cy="166.50997"
     inkscape:document-units="mm"
     inkscape:current-layer="layer1"
     inkscape:document-rotation="0"
     showgrid="true"
     fit-margin-top="1"
     fit-margin-left="1"
     fit-margin-right="1"
     fit-margin-bottom="1"
     inkscape:window-width="2560"
     inkscape:window-height="1375"
     inkscape:window-x="1920"
     inkscape:window-y="0"
     inkscape:window-maximized="1"
     units="pt"
     lock-margins="true">
    <inkscape:grid
       type="xygrid"
       id="grid3509"
       originx="63.010214"
       originy="20.495045" />
  </sodipodi:namedview>
  <metadata
     id="metadata3310">
    <rdf:RDF>
      <cc:Work
         rdf:about="">
        <dc:format>image/svg+xml</dc:format>
        <dc:type
           rdf:resource="http://purl.org/dc/dcmitype/StillImage" />
        <dc:title></dc:title>
      </cc:Work>
    </rdf:RDF>
  </metadata>
  <g
     inkscape:label="Layer 1"
     inkscape:groupmode="layer"
     id="layer1"
     transform="translate(-30.927136,-91.179441)">
    <g
       id="g4212"
       transform="matrix(-1.7320508,-1,-1,1.7320508,400.68802,44.096557)">
      <g
         id="Resistor-2"
         transform="matrix(0.26458333,0,0,0.26458333,88.645681,10.497826)">
        <rect
           id="rect10224-9-8-2-43-72-6-2-6-3-9-5-66-1-29-9"
           style="color:#000000;fill:none;stroke:#000000;stroke-linecap:round;stroke-linejoin:round;stroke-dashoffset:1.76"
           height="10"
           width="30"
           y="397.39999"
           x="55" />
        <path
           id="path1450-1-5-3-4-1-0-3-3-6-5-90-3-0-1"
           style="fill:#ffffff;fill-rule:evenodd;stroke:#000000;stroke-linecap:round;stroke-linejoin:round"
           d="m 85.01,402.4 h 4.98" />
        <path
           id="path1450-1-5-3-4-1-0-3-8-8-0-2-2-8-3-2"
           style="fill:#ffffff;fill-rule:evenodd;stroke:#000000;stroke-linecap:round;stroke-linejoin:round"
           d="m 50,402.4 h 5" />
      </g>
      <path
         style="fill:none;stroke:#000000;stroke-width:0.264583px;stroke-linecap:butt;stroke-linejoin:miter;stroke-opacity:1;marker-start:url(#marker1515-5)"
         d="m 97.906101,116.96616 h 3.968749"
         id="path1511-7"
         sodipodi:nodetypes="cc" />
      <path
         style="fill:none;stroke:#000000;stroke-width:0.264583px;stroke-linecap:butt;stroke-linejoin:miter;stroke-opacity:1"
         d="m 112.45818,116.96617 3.96875,-1e-5 v 0"
         id="path1660-0"
         sodipodi:nodetypes="ccc" />
    </g>
    <text
       xml:space="preserve"
       style="font-size:4.23334px;line-height:1.25;font-family:Roboto;-inkscape-font-specification:Roboto;stroke-width:0.529166"
       x="33.616535"
       y="94.558395"
       id="text1728-9"><tspan
         sodipodi:role="line"
         id="tspan1726-3"
         x="33.616535"
         y="94.558395"
         style="font-size:4.23334px;text-align:center;text-anchor:middle;stroke-width:0.529166">L1</tspan></text>
    <text
       xml:space="preserve"
       style="font-size:4.23334px;line-height:1.25;font-family:Roboto;-inkscape-font-specification:Roboto;stroke-width:0.529166"
       x="30.93058"
       y="150.25839"
       id="text1732-6"><tspan
         sodipodi:role="line"
         id="tspan1730-0"
         x="30.93058"
         y="150.25839"
         style="font-size:4.23334px;stroke-width:0.529166">L2</tspan></text>
    <g
       id="g3577"
       transform="matrix(0,-2,2,0,-149.36497,275.63154)">
      <g
         id="Resistor-2-0"
         transform="matrix(0.26458333,0,0,0.26458333,63.510263,9.1749094)">
        <rect
           id="rect10224-9-8-2-43-72-6-2-6-3-9-5-66-1-29-9-6"
           style="color:#000000;fill:none;stroke:#000000;stroke-linecap:round;stroke-linejoin:round;stroke-dashoffset:1.76"
           height="10"
           width="30"
           y="397.39999"
           x="55" />
        <path
           id="path1450-1-5-3-4-1-0-3-3-6-5-90-3-0-1-3"
           style="fill:#ffffff;fill-rule:evenodd;stroke:#000000;stroke-linecap:round;stroke-linejoin:round"
           d="m 85.01,402.4 h 4.98" />
        <path
           id="path1450-1-5-3-4-1-0-3-8-8-0-2-2-8-3-2-2"
           style="fill:#ffffff;fill-rule:evenodd;stroke:#000000;stroke-linecap:round;stroke-linejoin:round"
           d="m 50,402.4 h 5" />
      </g>
      <path
         style="fill:none;stroke:#000000;stroke-width:0.264583px;stroke-linecap:butt;stroke-linejoin:miter;stroke-opacity:1;marker-start:url(#marker1515-5-0)"
         d="m 72.770684,115.64324 h 3.968749"
         id="path1511-7-0"
         sodipodi:nodetypes="cc" />
      <path
         style="fill:none;stroke:#000000;stroke-width:0.264583px;stroke-linecap:butt;stroke-linejoin:miter;stroke-opacity:1;marker-end:url(#marker1664-5-6)"
         d="m 87.322762,115.64325 3.96875,-10e-6 v 0"
         id="path1660-0-6"
         sodipodi:nodetypes="ccc" />
    </g>
    <text
       xml:space="preserve"
       style="font-size:4.23334px;line-height:1.25;font-family:Roboto;-inkscape-font-specification:Roboto;stroke-width:0.529166"
       x="31.245098"
       y="163.44841"
       id="text1732-6-7"><tspan
         sodipodi:role="line"
         id="tspan1730-0-8"
         x="31.245098"
         y="163.44841"
         style="font-size:4.23334px;stroke-width:0.529166">L3</tspan></text>
    <text
       xml:space="preserve"
       style="font-size:4.23334px;line-height:1.25;font-family:Roboto;-inkscape-font-specification:Roboto;stroke-width:0.529166"
       x="33.619869"
       y="131.69237"
       id="text1728-9-6"><tspan
         sodipodi:role="line"
         id="tspan1726-3-8"
         x="33.619869"
         y="131.69237"
         style="font-size:4.23334px;text-align:center;text-anchor:middle;stroke-width:0.529166">N</tspan></text>
    <g
       id="Resistor-2-9"
       transform="matrix(0.45827177,-0.26458333,0.26458333,0.45827177,-72.760331,-26.366349)">
      <rect
         id="rect10224-9-8-2-43-72-6-2-6-3-9-5-66-1-29-9-2"
         style="color:#000000;fill:none;stroke:#000000;stroke-linecap:round;stroke-linejoin:round;stroke-dashoffset:1.76"
         height="10"
         width="30"
         y="397.39999"
         x="55" />
      <path
         id="path1450-1-5-3-4-1-0-3-3-6-5-90-3-0-1-0"
         style="fill:#ffffff;fill-rule:evenodd;stroke:#000000;stroke-linecap:round;stroke-linejoin:round"
         d="m 85.01,402.4 h 4.98" />
      <path
         id="path1450-1-5-3-4-1-0-3-8-8-0-2-2-8-3-2-6"
         style="fill:#ffffff;fill-rule:evenodd;stroke:#000000;stroke-linecap:round;stroke-linejoin:round"
         d="m 50,402.4 h 5" />
    </g>
    <path
       style="fill:none;stroke:#000000;stroke-width:0.529166px;stroke-linecap:butt;stroke-linejoin:miter;stroke-opacity:1;marker-start:url(#marker1515-5-3)"
       d="m 49.747521,148.78179 6.874074,-3.96874"
       id="path1511-7-8"
       sodipodi:nodetypes="cc" />
    <path
       style="fill:none;stroke:#000000;stroke-width:0.529166px;stroke-linecap:butt;stroke-linejoin:miter;stroke-opacity:1"
       d="m 74.952471,134.22973 6.874066,-3.96876 v 0"
       id="path1660-0-9"
       sodipodi:nodetypes="ccc" />
    <text
       xml:space="preserve"
       style="font-size:4.23333px;line-height:1.25;font-family:Roboto;-inkscape-font-specification:Roboto;text-align:center;text-anchor:middle;stroke-width:0.529167"
       x="106.69488"
       y="-90.305199"
       id="text1992"
       transform="rotate(90)"><tspan
         sodipodi:role="line"
         id="tspan1990"
         x="106.69488"
         y="-90.305199"
         style="text-align:start;text-anchor:start;stroke-width:0.529167">230V</tspan></text>
    <path
       style="fill:none;stroke:#000000;stroke-width:0.529;stroke-linecap:butt;stroke-linejoin:miter;stroke-miterlimit:4;stroke-dasharray:none;stroke-opacity:1;marker-start:url(#TriangleInM-3);marker-end:url(#TriangleOutM)"
       d="m 88.17796,95.799489 1e-5,31.755271"
       id="path1511-7-6"
       sodipodi:nodetypes="cc" />
    <path
       style="fill:none;stroke:#000000;stroke-width:0.529;stroke-linecap:butt;stroke-linejoin:miter;stroke-miterlimit:4;stroke-dasharray:none;stroke-opacity:1"
       d="M 82.031179,93.153654 H 37.052012"
       id="path1511-7-6-6"
       sodipodi:nodetypes="cc" />
    <path
       style="fill:none;stroke:#000000;stroke-width:0.529;stroke-linecap:butt;stroke-linejoin:miter;stroke-miterlimit:4;stroke-dasharray:1.587, 0.529;stroke-dashoffset:0;stroke-opacity:1"
       d="M 82.031096,130.19532 H 37.051929"
       id="path1511-7-6-6-2"
       sodipodi:nodetypes="cc" />
    <path
       style="fill:none;stroke:#000000;stroke-width:0.529;stroke-linecap:butt;stroke-linejoin:miter;stroke-miterlimit:4;stroke-dasharray:none;stroke-opacity:1"
       d="m 49.747521,148.78179 h -12.696"
       id="path1511-7-6-6-1"
       sodipodi:nodetypes="cc" />
    <path
       style="fill:none;stroke:#000000;stroke-width:0.529;stroke-linecap:butt;stroke-linejoin:miter;stroke-miterlimit:4;stroke-dasharray:none;stroke-opacity:1"
       d="m 114.14033,148.78145 v 13.16387 H 37.051929"
       id="path1511-7-6-6-1-2-7"
       sodipodi:nodetypes="ccc" />
  </g>
</svg>
