<svg xmlns="http://www.w3.org/2000/svg" width="116.589" height="153.994" viewBox="0 0 30.848 40.744"><defs><marker id="e" refX="0" refY="0" orient="auto" overflow="visible"><path d="M2.308 0l-3.46 2v-4z" fill-rule="evenodd" stroke="#000" stroke-width=".4pt"/></marker><marker id="b" refX="0" refY="0" orient="auto" overflow="visible"><path d="M1.96 0a2 2 0 11-4.001-.001A2 2 0 011.96 0z" fill-rule="evenodd" stroke="#000" stroke-width=".4pt"/></marker><marker id="c" refX="0" refY="0" orient="auto" overflow="visible"><path d="M1.96 0a2 2 0 11-4.001-.001A2 2 0 011.96 0z" fill-rule="evenodd" stroke="#000" stroke-width=".4pt"/></marker><marker id="d" refX="0" refY="0" orient="auto" overflow="visible"><path d="M-2.308 0l3.46-2v4z" fill-rule="evenodd" stroke="#000" stroke-width=".4pt"/></marker><path id="a" d="M71.67 97.639h70.487v32.321H71.67z"/></defs><text style="line-height:1.25;-inkscape-font-specification:Roboto" x="87.389" y="68.214" font-size="4.233" font-family="Roboto" stroke-width=".529" transform="translate(-87.142 -64.852)"><tspan x="87.389" y="68.214">L</tspan></text><text style="line-height:1.25;-inkscape-font-specification:Roboto" x="87.145" y="105.243" font-size="4.233" font-family="Roboto" stroke-width=".529" transform="translate(-87.142 -64.852)"><tspan x="87.145" y="105.243">N</tspan></text><text style="line-height:1.25;-inkscape-font-specification:Roboto;text-align:center" x="80.231" y="-114.585" transform="rotate(90 -11.145 -75.997)" font-size="4.233" font-family="Roboto" text-anchor="middle" stroke-width=".529"><tspan x="80.231" y="-114.585" style="text-align:start" text-anchor="start">230V</tspan></text><g stroke="#000" stroke-linecap="round" stroke-linejoin="round"><path color="#000" fill="none" stroke-dashoffset="1.76" d="M20.025 12.421v15.875h-5.292V12.421z" stroke-width=".52917"/><path d="M17.38 28.302v2.635M17.38 9.776v2.645" fill="#fff" fill-rule="evenodd" stroke-width=".52917"/></g><path d="M104.52 66.69v7.938" fill="none" stroke="#000" stroke-width=".529" marker-start="url(#b)" transform="translate(-87.142 -64.852)"/><path d="M104.52 95.794v7.938" fill="none" stroke="#000" stroke-width=".529" marker-end="url(#c)" transform="translate(-87.142 -64.852)"/><path d="M112.458 69.336v31.755" fill="none" stroke="#000" stroke-width=".529" marker-start="url(#d)" marker-end="url(#e)" transform="translate(-87.142 -64.852)"/><path d="M17.38 38.885H4.15M17.38 1.843H4.15" fill="none" stroke="#000" stroke-width=".529"/></svg>