<svg xmlns="http://www.w3.org/2000/svg" width="139.228" height="154.12" viewBox="0 0 36.837 40.777"><defs><marker id="a" refX="0" refY="0" orient="auto" overflow="visible"><path d="M1.96 0a2 2 0 11-4.001-.001A2 2 0 011.96 0z" fill-rule="evenodd" stroke="#000" stroke-width=".4pt"/></marker><marker id="b" refX="0" refY="0" orient="auto" overflow="visible"><path d="M1.96 0a2 2 0 11-4.001-.001A2 2 0 011.96 0z" fill-rule="evenodd" stroke="#000" stroke-width=".4pt"/></marker><marker id="c" refX="0" refY="0" orient="auto" overflow="visible"><path d="M-2.308 0l3.46-2v4z" fill-rule="evenodd" stroke="#000" stroke-width=".4pt"/></marker><marker id="d" refX="0" refY="0" orient="auto" overflow="visible"><path d="M1.96 0a2 2 0 11-4.001-.001A2 2 0 011.96 0z" fill-rule="evenodd" stroke="#000" stroke-width=".4pt"/></marker><marker id="e" refX="0" refY="0" orient="auto" overflow="visible"><path d="M2.308 0l-3.46 2v-4z" fill-rule="evenodd" stroke="#000" stroke-width=".4pt"/></marker></defs><text style="line-height:1.25;-inkscape-font-specification:Roboto" x="43.719" y="95.996" font-size="4.233" font-family="Roboto" stroke-width=".529" transform="translate(-43.35 -92.617)"><tspan x="43.719" y="95.996">L1</tspan></text><text style="line-height:1.25;-inkscape-font-specification:Roboto" x="43.353" y="133.041" font-size="4.233" font-family="Roboto" stroke-width=".529" transform="translate(-43.35 -92.617)"><tspan x="43.353" y="133.041">L2</tspan></text><text style="line-height:1.25;-inkscape-font-specification:Roboto;text-align:center" x="107.993" y="-76.783" transform="rotate(90 24.634 -67.983)" font-size="4.233" font-family="Roboto" text-anchor="middle" stroke-width=".529"><tspan x="107.993" y="-76.783" style="text-align:start" text-anchor="start">240V</tspan></text><g stroke="#000" stroke-linecap="round" stroke-linejoin="round"><path color="#000" fill="none" stroke-dashoffset="1.76" d="M21.484 12.438v15.875h-5.292V12.438z" stroke-width=".52917"/><path d="M18.838 28.318v2.635M18.838 9.792v2.646" fill="#fff" fill-rule="evenodd" stroke-width=".52917"/></g><path d="M62.187 94.471v7.938" fill="none" stroke="#000" stroke-width=".529" marker-start="url(#a)" transform="translate(-43.35 -92.617)"/><path d="M62.187 123.575v7.938" fill="none" stroke="#000" stroke-width=".529" marker-end="url(#b)" transform="translate(-43.35 -92.617)"/><path d="M74.094 97.122v15.88 15.87" fill="none" stroke="#000" stroke-width=".529" marker-start="url(#c)" marker-mid="url(#d)" marker-end="url(#e)" transform="translate(-43.35 -92.617)"/><path d="M18.838 38.902H5.61M18.838 1.86H5.61" fill="none" stroke="#000" stroke-width=".529"/><text style="line-height:1.25;-inkscape-font-specification:Roboto" x="68.757" y="114.521" font-size="4.233" font-family="Roboto" stroke-width=".529" transform="translate(-43.35 -92.617)"><tspan x="68.757" y="114.521">N</tspan></text><text style="line-height:1.25;-inkscape-font-specification:Roboto;text-align:center" x="101.679" y="-70.727" transform="rotate(90 24.634 -67.983)" font-size="2.822" font-family="Roboto" text-anchor="middle" stroke-width=".529"><tspan x="101.679" y="-70.727" style="text-align:start" dx="0 0 0 -1.7458716e-09" text-anchor="start">120V</tspan></text><text style="line-height:1.25;-inkscape-font-specification:Roboto;text-align:center" x="117.576" y="-70.748" transform="rotate(90 24.634 -67.983)" font-size="2.822" font-family="Roboto" text-anchor="middle" stroke-width=".529"><tspan x="117.576" y="-70.748" style="text-align:start" dx="0 0 0 -1.7458716e-09" text-anchor="start">120V</tspan></text></svg>