<svg xmlns="http://www.w3.org/2000/svg" width="320.452" height="274.632" viewBox="0 0 84.786 72.663"><defs><marker id="a" refX="0" refY="0" orient="auto" overflow="visible"><path d="M1.96 0a2 2 0 11-4.001-.001A2 2 0 011.96 0z" fill-rule="evenodd" stroke="#000" stroke-width=".4pt"/></marker><marker id="b" refX="0" refY="0" orient="auto" overflow="visible"><path d="M1.96 0a2 2 0 11-4.001-.001A2 2 0 011.96 0z" fill-rule="evenodd" stroke="#000" stroke-width=".4pt"/></marker><marker id="c" refX="0" refY="0" orient="auto" overflow="visible"><path d="M1.96 0a2 2 0 11-4.001-.001A2 2 0 011.96 0z" fill-rule="evenodd" stroke="#000" stroke-width=".4pt"/></marker><marker id="d" refX="0" refY="0" orient="auto" overflow="visible"><path d="M1.96 0a2 2 0 11-4.001-.001A2 2 0 011.96 0z" fill-rule="evenodd" stroke="#000" stroke-width=".4pt"/></marker><marker id="e" refX="0" refY="0" orient="auto" overflow="visible"><path d="M-2.308 0l3.46-2v4z" fill-rule="evenodd" stroke="#000" stroke-width=".4pt"/></marker><marker id="f" refX="0" refY="0" orient="auto" overflow="visible"><path d="M2.308 0l-3.46 2v-4z" fill-rule="evenodd" stroke="#000" stroke-width=".4pt"/></marker></defs><g stroke="#000"><g stroke-linecap="round" stroke-linejoin="round"><path color="#000" fill="none" stroke-dashoffset="1.76" d="M75.374 50.02l-13.748-7.938-2.646 4.583 13.748 7.937z" stroke-width=".52917"/><path d="M60.298 44.37l-2.282-1.317M76.342 53.634l-2.291-1.323" fill="#fff" fill-rule="evenodd" stroke-width=".52917"/></g><path d="M97.906 116.966h3.969" fill="none" stroke-width=".265" marker-start="url(#a)" transform="scale(-2 2) rotate(-30 -136.37 333.22)"/><path d="M58.011 43.05l-6.874-3.968h0" fill="none" stroke-width=".53"/></g><text style="line-height:1.25;-inkscape-font-specification:Roboto" x="33.617" y="94.558" font-size="4.233" font-family="Roboto" stroke-width=".529" transform="translate(-30.927 -91.18)"><tspan x="33.617" y="94.558" style="text-align:center" text-anchor="middle">L1</tspan></text><text style="line-height:1.25;-inkscape-font-specification:Roboto" x="30.931" y="150.258" font-size="4.233" font-family="Roboto" stroke-width=".529" transform="translate(-30.927 -91.18)"><tspan x="30.931" y="150.258">L2</tspan></text><g stroke="#000"><g stroke-linecap="round" stroke-linejoin="round"><path color="#000" fill="none" stroke-dashoffset="1.76" d="M48.349 28.327V12.452h5.291v15.875z" stroke-width=".52917"/><path d="M50.994 12.447V9.812M50.994 30.973v-2.646" fill="#fff" fill-rule="evenodd" stroke-width=".52917"/></g><path d="M72.77 115.643h3.97" fill="none" stroke-width=".265" marker-start="url(#b)" transform="rotate(-90 2.08 182.372) scale(2)"/><path d="M87.323 115.643h3.969v0" fill="none" stroke-width=".265" marker-end="url(#c)" transform="rotate(-90 2.08 182.372) scale(2)"/></g><text style="line-height:1.25;-inkscape-font-specification:Roboto" x="31.245" y="163.448" font-size="4.233" font-family="Roboto" stroke-width=".529" transform="translate(-30.927 -91.18)"><tspan x="31.245" y="163.448">L3</tspan></text><text style="line-height:1.25;-inkscape-font-specification:Roboto" x="33.62" y="131.692" font-size="4.233" font-family="Roboto" stroke-width=".529" transform="translate(-30.927 -91.18)"><tspan x="33.62" y="131.692" style="text-align:center" text-anchor="middle">N</tspan></text><g stroke="#000" stroke-linecap="round" stroke-linejoin="round"><path color="#000" fill="none" stroke-dashoffset="1.76" d="M26.663 50.02l13.748-7.938 2.646 4.583-13.748 7.937z" stroke-width=".52917"/><path d="M41.739 44.37l2.282-1.317M25.694 53.634l2.292-1.323" fill="#fff" fill-rule="evenodd" stroke-width=".52917"/></g><path d="M49.748 148.782l6.874-3.969" fill="none" stroke="#000" stroke-width=".529" marker-start="url(#d)" transform="translate(-30.927 -91.18)"/><path d="M44.025 43.05l6.874-3.968h0" fill="none" stroke="#000" stroke-width=".529"/><text style="line-height:1.25;-inkscape-font-specification:Roboto;text-align:center" x="106.695" y="-90.305" transform="rotate(90 30.126 -61.053)" font-size="4.233" font-family="Roboto" text-anchor="middle" stroke-width=".529"><tspan x="106.695" y="-90.305" style="text-align:start" text-anchor="start">230V</tspan></text><path d="M88.178 95.8v31.755" fill="none" stroke="#000" stroke-width=".529" marker-start="url(#e)" marker-end="url(#f)" transform="translate(-30.927 -91.18)"/><path d="M51.104 1.974H6.124" fill="none" stroke="#000" stroke-width=".529"/><path d="M51.104 39.016H6.124" fill="none" stroke="#000" stroke-width=".529" stroke-dasharray="1.587,.529"/><path d="M18.82 57.602H6.124M83.213 57.602v13.164H6.125" fill="none" stroke="#000" stroke-width=".529"/></svg>