<svg xmlns="http://www.w3.org/2000/svg" width="690.111" height="330.056" viewBox="0 0 182.592 87.327"><defs><marker id="a" refX="0" refY="0" orient="auto" overflow="visible"><path d="M1.96 0a2 2 0 11-4.001-.001A2 2 0 011.96 0z" fill-rule="evenodd" stroke="#000" stroke-width=".4pt"/></marker><marker id="b" refX="0" refY="0" orient="auto" overflow="visible"><path d="M1.96 0a2 2 0 11-4.001-.001A2 2 0 011.96 0z" fill-rule="evenodd" stroke="#000" stroke-width=".4pt"/></marker><marker id="c" refX="0" refY="0" orient="auto" overflow="visible"><path d="M1.96 0a2 2 0 11-4.001-.001A2 2 0 011.96 0z" fill-rule="evenodd" stroke="#000" stroke-width=".4pt"/></marker><marker id="d" refX="0" refY="0" orient="auto" overflow="visible"><path d="M1.96 0a2 2 0 11-4.001-.001A2 2 0 011.96 0z" fill-rule="evenodd" stroke="#000" stroke-width=".4pt"/></marker><marker id="e" refX="0" refY="0" orient="auto" overflow="visible"><path d="M-2.308 0l3.46-2v4z" fill-rule="evenodd" stroke="#000" stroke-width=".4pt"/></marker><marker id="f" refX="0" refY="0" orient="auto" overflow="visible"><path d="M2.308 0l-3.46 2v-4z" fill-rule="evenodd" stroke="#000" stroke-width=".4pt"/></marker><marker id="g" refX="0" refY="0" orient="auto" overflow="visible"><path d="M-2.308 0l3.46-2v4z" fill-rule="evenodd" stroke="#000" stroke-width=".4pt"/></marker><marker id="h" refX="0" refY="0" orient="auto" overflow="visible"><path d="M2.308 0l-3.46 2v-4z" fill-rule="evenodd" stroke="#000" stroke-width=".4pt"/></marker><marker id="i" refX="0" refY="0" orient="auto" overflow="visible"><path d="M1.96 0a2 2 0 11-4.001-.001A2 2 0 011.96 0z" fill-rule="evenodd" stroke="#000" stroke-width=".4pt"/></marker><marker id="j" refX="0" refY="0" orient="auto" overflow="visible"><path d="M1.96 0a2 2 0 11-4.001-.001A2 2 0 011.96 0z" fill-rule="evenodd" stroke="#000" stroke-width=".4pt"/></marker><marker id="k" refX="0" refY="0" orient="auto" overflow="visible"><path d="M1.96 0a2 2 0 11-4.001-.001A2 2 0 011.96 0z" fill-rule="evenodd" stroke="#000" stroke-width=".4pt"/></marker></defs><g stroke="#000"><g stroke-linecap="round" stroke-linejoin="round"><path color="#000" fill="none" stroke-dashoffset="1.76" d="M75.374 64.684l-13.748-7.938-2.646 4.583 13.748 7.937z" stroke-width=".52917"/><path d="M60.298 59.035l-2.282-1.318M76.342 68.298l-2.291-1.323" fill="#fff" fill-rule="evenodd" stroke-width=".52917"/></g><path d="M97.906 116.966h3.969" fill="none" stroke-width=".265" marker-start="url(#a)" transform="scale(-2 2) rotate(-30 -122.687 336.887)"/><path d="M58.011 57.715l-6.874-3.97h0" fill="none" stroke-width=".53"/></g><text style="line-height:1.25;-inkscape-font-specification:Roboto" x="33.617" y="94.558" font-size="4.233" font-family="Roboto" stroke-width=".529" transform="translate(-30.927 -76.515)"><tspan x="33.617" y="94.558" style="text-align:center" text-anchor="middle">L1</tspan></text><text style="line-height:1.25;-inkscape-font-specification:Roboto" x="30.931" y="150.258" font-size="4.233" font-family="Roboto" stroke-width=".529" transform="translate(-30.927 -76.515)"><tspan x="30.931" y="150.258">L2</tspan></text><g stroke="#000"><g stroke-linecap="round" stroke-linejoin="round"><path color="#000" fill="none" stroke-dashoffset="1.76" d="M48.349 42.992V27.117h5.291v15.875z" stroke-width=".52917"/><path d="M50.994 27.111v-2.635M50.994 45.638v-2.646" fill="#fff" fill-rule="evenodd" stroke-width=".52917"/></g><path d="M72.77 115.643h3.97" fill="none" stroke-width=".265" marker-start="url(#b)" transform="matrix(0 -2 2 0 -180.292 199.116)"/><path d="M87.323 115.643h3.969v0" fill="none" stroke-width=".265" marker-end="url(#c)" transform="matrix(0 -2 2 0 -180.292 199.116)"/></g><text style="line-height:1.25;-inkscape-font-specification:Roboto" x="31.245" y="163.448" font-size="4.233" font-family="Roboto" stroke-width=".529" transform="translate(-30.927 -76.515)"><tspan x="31.245" y="163.448">L3</tspan></text><text style="line-height:1.25;-inkscape-font-specification:Roboto" x="33.62" y="131.692" font-size="4.233" font-family="Roboto" stroke-width=".529" transform="translate(-30.927 -76.515)"><tspan x="33.62" y="131.692" style="text-align:center" text-anchor="middle">N</tspan></text><g stroke="#000" stroke-linecap="round" stroke-linejoin="round"><path color="#000" fill="none" stroke-dashoffset="1.76" d="M26.663 64.684l13.748-7.938 2.646 4.583-13.748 7.937z" stroke-width=".52917"/><path d="M41.739 59.035l2.282-1.318M25.694 68.298l2.292-1.323" fill="#fff" fill-rule="evenodd" stroke-width=".52917"/></g><path d="M49.748 148.782l6.874-3.969" fill="none" stroke="#000" stroke-width=".529" marker-start="url(#d)" transform="translate(-30.927 -76.515)"/><path d="M44.025 57.715l6.874-3.97h0" fill="none" stroke="#000" stroke-width=".529"/><text style="line-height:1.25;-inkscape-font-specification:Roboto;text-align:center" x="103.454" y="-90.305" transform="rotate(90 22.794 -53.721)" font-size="4.233" font-family="Roboto" text-anchor="middle" stroke-width=".529"><tspan x="103.454" y="-90.305" style="text-align:start" text-anchor="start">230V AC</tspan></text><path d="M88.178 95.8v31.755" fill="none" stroke="#000" stroke-width=".529" marker-start="url(#e)" marker-end="url(#f)" transform="translate(-30.927 -76.515)"/><path d="M51.104 16.639H6.124" fill="none" stroke="#000" stroke-width=".529"/><path d="M51.104 53.68H6.124" fill="none" stroke="#000" stroke-width=".529" stroke-dasharray="1.587,.529"/><path d="M18.82 72.267H6.124M83.213 72.266V85.43H6.125" fill="none" stroke="#000" stroke-width=".529"/><g><text style="line-height:1.25;-inkscape-font-specification:Roboto" x="126.221" y="94.558" font-size="4.233" font-family="Roboto" stroke-width=".529" transform="translate(-26.165 -76.515)"><tspan x="126.221" y="94.558" style="text-align:center" text-anchor="middle">L1</tspan></text><text style="line-height:1.25;-inkscape-font-specification:Roboto" x="123.535" y="150.258" font-size="4.233" font-family="Roboto" stroke-width=".529" transform="translate(-26.165 -76.515)"><tspan x="123.535" y="150.258">L2</tspan></text><text style="line-height:1.25;-inkscape-font-specification:Roboto" x="123.849" y="163.448" font-size="4.233" font-family="Roboto" stroke-width=".529" transform="translate(-26.165 -76.515)"><tspan x="123.849" y="163.448">L3</tspan></text><g stroke-width=".529"><text style="line-height:1.25;-inkscape-font-specification:Roboto;text-align:center" x="95.26" y="154.851" font-size="4.233" font-family="Roboto" text-anchor="middle" transform="rotate(60 238.484 156.887)"><tspan x="95.26" y="154.851" style="text-align:start" text-anchor="start">400V AC</tspan></text><path d="M82.314 156.978h42.333" fill="none" stroke="#000" marker-start="url(#g)" marker-end="url(#h)" transform="rotate(60 238.484 156.887)"/></g><path d="M174.636 93.154h-44.98" fill="none" stroke="#000" stroke-width=".529" marker-start="url(#i)" transform="translate(-26.165 -76.515)"/><path d="M142.352 148.782h-12.696" fill="none" stroke="#000" stroke-width=".529" marker-start="url(#j)" transform="translate(-26.165 -76.515)"/><path d="M206.745 148.781v13.164h-77.089" fill="none" stroke="#000" stroke-width=".529" marker-start="url(#k)" transform="translate(-26.165 -76.515)"/><g transform="translate(44.51 -79.784)"><a><path d="M71.677 152.05h24.264m15.87 0h24.259" fill="none" stroke="#000" stroke-width=".529"/></a><path color="#000" fill="none" stroke="#000" stroke-width=".529" stroke-linecap="round" stroke-linejoin="round" stroke-dashoffset="1.76" d="M95.94 149.397h15.875v5.292H95.94z"/></g><g transform="rotate(60 227.344 150.85)"><a><path d="M71.677 152.05h24.264m15.87 0h24.259" fill="none" stroke="#000" stroke-width=".529"/></a><path color="#000" fill="none" stroke="#000" stroke-width=".529" stroke-linecap="round" stroke-linejoin="round" stroke-dashoffset="1.76" d="M95.94 149.397h15.875v5.292H95.94z"/></g><g transform="rotate(-60 25 73.605)"><a><path d="M71.677 152.05h24.264m15.87 0h24.259" fill="none" stroke="#000" stroke-width=".529"/></a><path color="#000" fill="none" stroke="#000" stroke-width=".529" stroke-linecap="round" stroke-linejoin="round" stroke-dashoffset="1.76" d="M95.94 149.397h15.875v5.292H95.94z"/></g><g fill="red"><path d="M133.502 31.339l37.418 37.418-7.483 7.483-37.418-37.418z"/><path d="M170.92 38.822L133.502 76.24l-7.483-7.483 37.418-37.418z"/></g></g><text style="line-height:1.25;-inkscape-font-specification:'Roboto, Normal';text-align:center" x="73.219" y="83.094" font-size="8.467" font-family="Roboto" text-anchor="middle" stroke-width=".265" transform="translate(-30.927 -76.515)"><tspan x="73.219" y="83.094" dx="0 0 0">Star</tspan></text><text style="line-height:1.25;-inkscape-font-specification:'Roboto, Normal';text-align:center" x="170.793" y="83.218" font-size="8.467" font-family="Roboto" text-anchor="middle" stroke-width=".265" transform="translate(-30.927 -76.515)"><tspan x="170.793" y="83.218">Delta</tspan></text></svg>