<svg xmlns="http://www.w3.org/2000/svg" width="457.775" height="438.883" viewBox="0 0 121.12 116.121"><defs><marker id="b" refX="0" refY="0" orient="auto" overflow="visible"><path d="M-2.308 0l3.46-2v4z" fill="gray" fill-rule="evenodd" stroke="gray" stroke-width=".4pt"/></marker><marker id="c" refX="0" refY="0" orient="auto" overflow="visible"><path d="M-2.308 0l3.46-2v4z" fill="gray" fill-rule="evenodd" stroke="gray" stroke-width=".4pt"/></marker><path id="a" d="M3.969 39.688h95.25v23.813H3.969z"/></defs><path d="M120.316 7.322V114.48M80.479 7.322V114.48M40.641 7.322V114.48M.804 7.322V114.48" fill="none" stroke="gray" stroke-width=".9"/><text style="line-height:1.25;-inkscape-font-specification:Roboto" x="-3.276" y="78.944" transform="matrix(1.00189 0 0 .99812 7.643 3.068)" font-size="9.543" font-family="Roboto" stroke-width=".265"><tspan x="-3.276" y="78.944"><tspan style="-inkscape-font-specification:'Roboto Bold'" font-weight="700">30</tspan>/<tspan style="-inkscape-font-specification:'Roboto Bold'" font-weight="700" fill="#00f">20</tspan>%</tspan></text><g stroke-width=".665"><text style="line-height:.85;-inkscape-font-specification:Roboto;text-align:center" x="26.456" y="84.138" font-size="4.939" font-family="Roboto" text-anchor="middle" stroke-width=".176" transform="matrix(1.50567 0 0 1.5 -19.115 -11.728)"><tspan x="26.456" y="84.138" font-size="4.233" fill="gray">period</tspan></text><path d="M15.875 82.815h3.969" fill="none" stroke="gray" stroke-width=".399" marker-start="url(#b)" transform="matrix(1.50567 0 0 1.5 -19.115 -11.728)"/><path d="M37.042 82.815h-3.97" fill="none" stroke="gray" stroke-width=".399" marker-start="url(#c)" transform="matrix(1.50567 0 0 1.5 -19.115 -11.728)"/></g><g stroke-width=".665"><text style="line-height:1.25;-inkscape-font-specification:Roboto" x="15.546" y="21.1" font-size="6.35" font-family="Roboto" stroke-width=".176" transform="matrix(1.50567 0 0 1.5 -19.115 13.275)"><tspan x="15.546" y="21.1"><tspan style="-inkscape-font-specification:'Roboto Bold'" font-weight="700">30</tspan>/<tspan style="-inkscape-font-specification:'Roboto Bold'" font-weight="700" fill="#00f">70</tspan>%</tspan></text><path d="M13.23 29.104v-5.292h7.937v5.292h18.52v-.278M39.687 29.104v-5.291h7.938v5.291h18.52v-.278M66.146 29.104v-5.292h7.937v5.292h18.521v-.278" fill="none" stroke="#000" stroke-width=".599" transform="matrix(1.50567 0 0 1.5 -19.115 13.275)"/><path d="M13.23 37.042h7.937V31.75h18.52v5.292h1.323M66.146 37.042h7.937V31.75h18.521v5.292-.279" fill="none" stroke="#00f" stroke-width=".599" transform="matrix(1.50567 0 0 1.5 -19.115 13.275)"/><path d="M39.688 37.042h7.937V31.75h18.52v5.292h1.324" fill="none" stroke="#00f" stroke-width=".599" transform="matrix(1.50567 0 0 1.5 -19.115 13.275)"/></g><path d="M.804 94.635v-7.938h11.95v7.938h27.887v-.418M40.641 94.635v-7.938h11.951v7.938H80.48v-.418" fill="none" stroke="#000" stroke-width=".9"/><path d="M80.479 94.635v-7.938h11.95v7.938h27.887v-.418" fill="none" stroke="#000" stroke-width=".9"/><path d="M.804 106.541h11.95v-7.937h7.968v7.937h19.92v-.418" fill="none" stroke="#00f" stroke-width=".9"/><path d="M40.641 106.541h11.951v-7.937h7.968v7.937h19.919v-.418M80.479 106.541h11.95v-7.937h7.968v7.937h19.92v-.418" fill="none" stroke="#00f" stroke-width=".9"/><g stroke-width=".665"><text style="line-height:1.25;-inkscape-font-specification:Roboto" x="15.346" y="44.912" font-size="6.35" font-family="Roboto" stroke-width=".176" transform="matrix(1.50567 0 0 1.5 -19.115 -60.146)"><tspan x="15.346" y="44.912"><tspan style="-inkscape-font-specification:'Roboto Bold'" font-weight="700">50</tspan>/<tspan style="-inkscape-font-specification:'Roboto Bold'" font-weight="700" fill="#00f">50</tspan>%</tspan></text><path d="M13.23 52.917v-5.292h13.228v5.292h13.23v-.279M39.688 52.917v-5.292h13.229v5.292h13.229v-.279M66.146 52.917v-5.292h13.229v5.292h13.23" fill="none" stroke="#000" stroke-width=".599" transform="matrix(1.50567 0 0 1.5 -19.115 -60.146)"/><path d="M39.687 61.147v-5.292H26.458v5.292H13.23v-.278M66.146 61.147v-5.292h-13.23v5.292H39.688v-.278" fill="none" stroke="#00f" stroke-width=".599" transform="matrix(1.50567 0 0 1.5 -19.115 -60.146)"/><path d="M92.604 61.147v-5.292H79.375v5.292h-13.23v-.278" fill="none" stroke="#00f" stroke-width=".599" transform="matrix(1.50567 0 0 1.5 -19.115 -60.146)"/></g></svg>