<svg xmlns="http://www.w3.org/2000/svg" width="588.189" height="401.589" viewBox="0 0 155.625 106.254"><defs><marker id="b" refX="0" refY="0" orient="auto" overflow="visible"><path d="M-2.308 0l3.46-2v4z" fill="gray" fill-rule="evenodd" stroke="gray" stroke-width=".4pt"/></marker><marker id="c" refX="0" refY="0" orient="auto" overflow="visible"><path d="M-2.308 0l3.46-2v4z" fill="gray" fill-rule="evenodd" stroke="gray" stroke-width=".4pt"/></marker><path id="a" d="M3.969 39.688h95.25v23.813H3.969z"/></defs><path d="M130.965.353V105.9M91.128.353V105.9M51.29.353V105.9M11.453.353V105.9" fill="none" stroke="gray" stroke-width=".6" stroke-dasharray="1.8,1.8"/><text style="line-height:1.25;-inkscape-font-specification:Roboto" x="119.113" y="87.732" transform="matrix(1.00189 0 0 .99812 18.292 -3.901)" font-size="9.543" font-family="Roboto" stroke-width=".265"><tspan x="119.113" y="87.732"><tspan style="-inkscape-font-specification:'Roboto Bold'" font-weight="700">30%</tspan></tspan></text><text style="line-height:.85;-inkscape-font-specification:Roboto;text-align:center" x="13.05" y="108.44" transform="matrix(1.00189 0 0 .99812 18.292 -3.901)" font-size="7.422" font-family="Roboto" text-anchor="middle" stroke-width=".265"><tspan x="13.05" y="108.44" font-size="6.362" fill="gray">period</tspan></text><path d="M-2.856 106.25H3.12" fill="none" stroke="gray" stroke-width=".6" marker-start="url(#b)" transform="translate(18.292 -3.901)"/><path d="M29.014 106.25H23.04" fill="none" stroke="gray" stroke-width=".6" marker-start="url(#c)" transform="translate(18.292 -3.901)"/><text style="line-height:1.25;-inkscape-font-specification:Roboto" x="119.127" y="63.477" transform="matrix(1.00189 0 0 .99812 18.292 -3.901)" font-size="9.543" font-family="Roboto" stroke-width=".265"><tspan x="119.127" y="63.477"><tspan style="-inkscape-font-specification:'Roboto Bold'" font-weight="700" fill="#00f">70%</tspan></tspan></text><path d="M11.453 48.375v-7.938h11.951v7.938H51.29v-.418" fill="none" stroke="#000" stroke-width=".9" stroke-linecap="square"/><path d="M51.29 48.375v-7.938h11.952v7.938h27.886v-.418" fill="none" stroke="#000" stroke-width=".9"/><path d="M91.128 48.375v-7.938h11.951v7.938h27.886" fill="none" stroke="#000" stroke-width=".9" stroke-linecap="square"/><path d="M11.453 60.28h11.951v-7.937H51.29v7.938h1.992M91.128 60.28h11.951v-7.937h27.886v7.938-.418" fill="none" stroke="#00f" stroke-width=".9" stroke-linecap="square"/><path d="M51.29 60.28h11.952v-7.937h27.886v7.938h1.992" fill="none" stroke="#00f" stroke-width=".9"/><path d="M11.453 84.49v-7.937h11.951v7.937H51.29v-.417" fill="none" stroke="#000" stroke-width=".9" stroke-linecap="square"/><path d="M51.29 84.49v-7.937h11.952v7.937h27.886v-.417M91.128 84.49v-7.937h11.951v7.937h27.886v-.417" fill="none" stroke="#000" stroke-width=".9"/><path d="M11.453 96.397h11.951v-7.938h7.968v7.938H51.29" fill="none" stroke="#00f" stroke-width=".9" stroke-linecap="square"/><path d="M51.29 96.397h11.952v-7.938h7.967v7.938h19.919v-.418M91.128 96.397h11.951v-7.938h7.968v7.938h19.918v-.418" fill="none" stroke="#00f" stroke-width=".9"/><text style="line-height:1.25;-inkscape-font-specification:Roboto" x="118.917" y="27.733" transform="matrix(1.00189 0 0 .99812 18.292 -3.901)" font-size="9.543" font-family="Roboto" stroke-width=".265"><tspan x="118.917" y="27.733"><tspan style="-inkscape-font-specification:'Roboto Bold'" font-weight="700" fill="#00f">50%</tspan></tspan></text><path d="M11.453 12.259V4.322h19.919v7.937H51.29v-.418" fill="none" stroke="#000" stroke-width=".9" stroke-linecap="square"/><path d="M51.29 12.259V4.322h19.92v7.937h19.918v-.418" fill="none" stroke="#000" stroke-width=".9"/><path d="M91.128 12.259V4.322h19.919v7.937h19.918" fill="none" stroke="#000" stroke-width=".9" stroke-linecap="square"/><path d="M51.29 24.605v-7.938H31.372v7.938h-19.92 0" fill="none" stroke="#00f" stroke-width=".9" stroke-linecap="square"/><path d="M91.128 24.605v-7.938H71.209v7.938H51.29v-.418" fill="none" stroke="#00f" stroke-width=".9"/><path d="M130.965 24.605v-7.938h-19.918v7.938h-19.92v-.418" fill="none" stroke="#00f" stroke-width=".9" stroke-linecap="square"/><text style="line-height:1.25;-inkscape-font-specification:Roboto" x="-17.773" y="15.611" transform="matrix(1.00189 0 0 .99812 18.292 -3.901)" font-size="9.543" font-family="Roboto" stroke-width=".265"><tspan x="-17.773" y="15.611"><tspan style="-inkscape-font-specification:'Roboto Bold'" font-weight="700">1</tspan></tspan></text><text style="line-height:1.25;-inkscape-font-specification:Roboto" x="-18.237" y="28.025" transform="matrix(1.00189 0 0 .99812 18.292 -3.901)" font-size="9.543" font-family="Roboto" stroke-width=".265"><tspan x="-18.237" y="28.025"><tspan style="-inkscape-font-specification:'Roboto Bold'" font-weight="700" fill="#00f">2</tspan></tspan></text><text style="line-height:1.25;-inkscape-font-specification:Roboto" x="-17.773" y="51.795" transform="matrix(1.00189 0 0 .99812 18.292 -3.901)" font-size="9.543" font-family="Roboto" stroke-width=".265"><tspan x="-17.773" y="51.795"><tspan style="-inkscape-font-specification:'Roboto Bold'" font-weight="700">1</tspan></tspan></text><text style="line-height:1.25;-inkscape-font-specification:Roboto" x="-18.237" y="63.768" transform="matrix(1.00189 0 0 .99812 18.292 -3.901)" font-size="9.543" font-family="Roboto" stroke-width=".265"><tspan x="-18.237" y="63.768"><tspan style="-inkscape-font-specification:'Roboto Bold'" font-weight="700" fill="#00f">2</tspan></tspan></text><text style="line-height:1.25;-inkscape-font-specification:Roboto" x="-17.773" y="87.979" transform="matrix(1.00189 0 0 .99812 18.292 -3.901)" font-size="9.543" font-family="Roboto" stroke-width=".265"><tspan x="-17.773" y="87.979"><tspan style="-inkscape-font-specification:'Roboto Bold'" font-weight="700">1</tspan></tspan></text><text style="line-height:1.25;-inkscape-font-specification:Roboto" x="-18.237" y="99.952" transform="matrix(1.00189 0 0 .99812 18.292 -3.901)" font-size="9.543" font-family="Roboto" stroke-width=".265"><tspan x="-18.237" y="99.952"><tspan style="-inkscape-font-specification:'Roboto Bold'" font-weight="700" fill="#00f">2</tspan></tspan></text><text style="line-height:1.25;-inkscape-font-specification:Roboto" x="118.917" y="15.364" transform="matrix(1.00189 0 0 .99812 18.292 -3.901)" font-size="9.543" font-family="Roboto" stroke-width=".265"><tspan x="118.917" y="15.364"><tspan style="-inkscape-font-specification:'Roboto Bold'" font-weight="700">50%</tspan></tspan></text><text style="line-height:1.25;-inkscape-font-specification:Roboto" x="119.113" y="51.548" transform="matrix(1.00189 0 0 .99812 18.292 -3.901)" font-size="9.543" font-family="Roboto" stroke-width=".265"><tspan x="119.113" y="51.548"><tspan style="-inkscape-font-specification:'Roboto Bold'" font-weight="700">30%</tspan></tspan></text><text style="line-height:1.25;-inkscape-font-specification:Roboto" x="119.08" y="99.661" transform="matrix(1.00189 0 0 .99812 18.292 -3.901)" font-size="9.543" font-family="Roboto" stroke-width=".265"><tspan x="119.08" y="99.661"><tspan style="-inkscape-font-specification:'Roboto Bold'" font-weight="700" fill="#00f">20%</tspan></tspan></text></svg>