<svg xmlns="http://www.w3.org/2000/svg" width="498.022" height="438.883" viewBox="0 0 131.768 116.121"><defs><marker id="b" refX="0" refY="0" orient="auto" overflow="visible"><path d="M-2.308 0l3.46-2v4z" fill="gray" fill-rule="evenodd" stroke="gray" stroke-width=".4pt"/></marker><marker id="c" refX="0" refY="0" orient="auto" overflow="visible"><path d="M-2.308 0l3.46-2v4z" fill="gray" fill-rule="evenodd" stroke="gray" stroke-width=".4pt"/></marker><path id="a" d="M3.969 39.688h95.25v23.813H3.969z"/></defs><path d="M130.965 7.322V114.48M91.128 7.322V114.48M51.29 7.322V114.48M11.453 7.322V114.48" fill="none" stroke="gray" stroke-width=".6" stroke-dasharray="1.8,1.8"/><text style="line-height:1.25;-inkscape-font-specification:Roboto" x="-3.276" y="78.944" transform="matrix(1.00189 0 0 .99812 18.292 3.068)" font-size="9.543" font-family="Roboto" stroke-width=".265"><tspan x="-3.276" y="78.944"><tspan style="-inkscape-font-specification:'Roboto Bold'" font-weight="700">30</tspan>/<tspan style="-inkscape-font-specification:'Roboto Bold'" font-weight="700" fill="#00f">20</tspan>%</tspan></text><text style="line-height:.85;-inkscape-font-specification:Roboto;text-align:center" x="13.05" y="111.621" transform="matrix(1.00189 0 0 .99812 18.292 3.068)" font-size="7.422" font-family="Roboto" text-anchor="middle" stroke-width=".265"><tspan x="13.05" y="111.621" font-size="6.362" fill="gray">period</tspan></text><path d="M-2.856 109.426H3.12" fill="none" stroke="gray" stroke-width=".6" marker-start="url(#b)" transform="translate(18.292 3.068)"/><path d="M29.014 109.426H23.04" fill="none" stroke="gray" stroke-width=".6" marker-start="url(#c)" transform="translate(18.292 3.068)"/><text style="line-height:1.25;-inkscape-font-specification:Roboto" x="-3.344" y="41.936" transform="matrix(1.00189 0 0 .99812 18.292 3.068)" font-size="9.543" font-family="Roboto" stroke-width=".265"><tspan x="-3.344" y="41.936"><tspan style="-inkscape-font-specification:'Roboto Bold'" font-weight="700">30</tspan>/<tspan style="-inkscape-font-specification:'Roboto Bold'" font-weight="700" fill="#00f">70</tspan>%</tspan></text><path d="M11.453 56.932v-7.938h11.951v7.938H51.29v-.418" fill="none" stroke="#000" stroke-width=".9" stroke-linecap="square"/><path d="M51.29 56.932v-7.938h11.952v7.938h27.886v-.418" fill="none" stroke="#000" stroke-width=".9"/><path d="M91.128 56.932v-7.938h11.951v7.938h27.886" fill="none" stroke="#000" stroke-width=".9" stroke-linecap="square"/><path d="M11.453 68.838h11.951V60.9H51.29v7.938h1.992M91.128 68.838h11.951V60.9h27.886v7.938-.418" fill="none" stroke="#00f" stroke-width=".9" stroke-linecap="square"/><path d="M51.29 68.838h11.952V60.9h27.886v7.938h1.992" fill="none" stroke="#00f" stroke-width=".9"/><path d="M11.453 94.635v-7.938h11.951v7.938H51.29v-.418" fill="none" stroke="#000" stroke-width=".9" stroke-linecap="square"/><path d="M51.29 94.635v-7.938h11.952v7.938h27.886v-.418M91.128 94.635v-7.938h11.951v7.938h27.886v-.418" fill="none" stroke="#000" stroke-width=".9"/><path d="M11.453 106.541h11.951v-7.937h7.968v7.937H51.29v-.418" fill="none" stroke="#00f" stroke-width=".9" stroke-linecap="square"/><path d="M51.29 106.541h11.952v-7.937h7.967v7.937h19.919v-.418M91.128 106.541h11.951v-7.937h7.968v7.937h19.918v-.418" fill="none" stroke="#00f" stroke-width=".9"/><text style="line-height:1.25;-inkscape-font-specification:Roboto" x="-3.646" y="4.162" transform="matrix(1.00189 0 0 .99812 18.292 3.068)" font-size="9.543" font-family="Roboto" stroke-width=".265"><tspan x="-3.646" y="4.162"><tspan style="-inkscape-font-specification:'Roboto Bold'" font-weight="700">50</tspan>/<tspan style="-inkscape-font-specification:'Roboto Bold'" font-weight="700" fill="#00f">50</tspan>%</tspan></text><path d="M11.453 19.229V11.29h19.919v7.938H51.29v-.418" fill="none" stroke="#000" stroke-width=".9" stroke-linecap="square"/><path d="M51.29 19.229V11.29h19.92v7.938h19.918v-.418" fill="none" stroke="#000" stroke-width=".9"/><path d="M91.128 19.229V11.29h19.919v7.938h19.918" fill="none" stroke="#000" stroke-width=".9" stroke-linecap="square"/><path d="M51.29 31.574v-7.937H31.372v7.937h-19.92 0" fill="none" stroke="#00f" stroke-width=".9" stroke-linecap="square"/><path d="M91.128 31.574v-7.937H71.209v7.937H51.29v-.418" fill="none" stroke="#00f" stroke-width=".9"/><path d="M130.965 31.574v-7.937h-19.918v7.937h-19.92v-.418" fill="none" stroke="#00f" stroke-width=".9" stroke-linecap="square"/><text style="line-height:1.25;-inkscape-font-specification:Roboto" x="-17.773" y="15.611" transform="matrix(1.00189 0 0 .99812 18.292 3.068)" font-size="9.543" font-family="Roboto" stroke-width=".265"><tspan x="-17.773" y="15.611"><tspan style="-inkscape-font-specification:'Roboto Bold'" font-weight="700">1</tspan></tspan></text><text style="line-height:1.25;-inkscape-font-specification:Roboto" x="-18.237" y="28.025" transform="matrix(1.00189 0 0 .99812 18.292 3.068)" font-size="9.543" font-family="Roboto" stroke-width=".265"><tspan x="-18.237" y="28.025"><tspan style="-inkscape-font-specification:'Roboto Bold'" font-weight="700" fill="#00f">2</tspan></tspan></text><text style="line-height:1.25;-inkscape-font-specification:Roboto" x="-17.773" y="53.386" transform="matrix(1.00189 0 0 .99812 18.292 3.068)" font-size="9.543" font-family="Roboto" stroke-width=".265"><tspan x="-17.773" y="53.386"><tspan style="-inkscape-font-specification:'Roboto Bold'" font-weight="700">1</tspan></tspan></text><text style="line-height:1.25;-inkscape-font-specification:Roboto" x="-18.237" y="65.359" transform="matrix(1.00189 0 0 .99812 18.292 3.068)" font-size="9.543" font-family="Roboto" stroke-width=".265"><tspan x="-18.237" y="65.359"><tspan style="-inkscape-font-specification:'Roboto Bold'" font-weight="700" fill="#00f">2</tspan></tspan></text><text style="line-height:1.25;-inkscape-font-specification:Roboto" x="-17.773" y="91.16" transform="matrix(1.00189 0 0 .99812 18.292 3.068)" font-size="9.543" font-family="Roboto" stroke-width=".265"><tspan x="-17.773" y="91.16"><tspan style="-inkscape-font-specification:'Roboto Bold'" font-weight="700">1</tspan></tspan></text><text style="line-height:1.25;-inkscape-font-specification:Roboto" x="-18.237" y="103.133" transform="matrix(1.00189 0 0 .99812 18.292 3.068)" font-size="9.543" font-family="Roboto" stroke-width=".265"><tspan x="-18.237" y="103.133"><tspan style="-inkscape-font-specification:'Roboto Bold'" font-weight="700" fill="#00f">2</tspan></tspan></text></svg>