<svg xmlns="http://www.w3.org/2000/svg" width="579.127" height="265.542" viewBox="0 0 153.227 70.258"><defs><marker id="a" refX="0" refY="0" orient="auto" overflow="visible"><path d="M-2.308 0l3.46-2v4z" fill="gray" fill-rule="evenodd" stroke="gray" stroke-width=".4pt"/></marker><marker id="b" refX="0" refY="0" orient="auto" overflow="visible"><path d="M-2.308 0l3.46-2v4z" fill="gray" fill-rule="evenodd" stroke="gray" stroke-width=".4pt"/></marker></defs><path d="M129.188.353v67.845M89.403.353v67.845M49.617.353v67.845M9.832.353v67.845" fill="none" stroke="gray" stroke-width=".6" stroke-dasharray="1.8,1.8"/><text style="line-height:1.25;-inkscape-font-specification:'Roboto Bold'" x="118.353" y="45.754" transform="matrix(1.00123 0 0 .99877 16.593 -9.854)" font-weight="700" font-size="9.537" font-family="Roboto" stroke-width=".265"><tspan x="118.353" y="45.754" style="-inkscape-font-specification:'Roboto Bold'">50%</tspan></text><path d="M9.832 36.426v-7.938h19.892v7.938h19.893v-.418" fill="none" stroke="#000" stroke-width=".9" stroke-linecap="square"/><path d="M49.617 36.426v-7.938H69.51v7.938h19.893v-.418" fill="none" stroke="#000" stroke-width=".9"/><path d="M89.403 36.426v-7.938h19.892v7.938h19.893" fill="none" stroke="#000" stroke-width=".9" stroke-linecap="square"/><text style="line-height:1.25;-inkscape-font-specification:'Roboto Bold'" x="118.493" y="21.557" transform="matrix(1.00123 0 0 .99877 16.593 -9.854)" font-weight="700" font-size="9.537" font-family="Roboto" stroke-width=".265"><tspan x="118.493" y="21.557" style="-inkscape-font-specification:'Roboto Bold'">25%</tspan></text><path d="M9.832 12.259V4.322h9.946v7.937h29.839v-.418M89.403 12.259V4.322h9.946v7.937h29.839" fill="none" stroke="#000" stroke-width=".9" stroke-linecap="square"/><path d="M49.617 12.259V4.322h9.946v7.937h29.84v-.418" fill="none" stroke="#000" stroke-width=".9"/><text style="line-height:1.25;-inkscape-font-specification:'Roboto Bold'" x="118.53" y="70.106" transform="matrix(1.00123 0 0 .99877 16.593 -9.854)" font-weight="700" font-size="9.537" font-family="Roboto" stroke-width=".265"><tspan x="118.53" y="70.106" style="-inkscape-font-specification:'Roboto Bold'">75%</tspan></text><path d="M9.832 60.749V52.81H39.67v7.938h9.946v-.418" fill="none" stroke="#000" stroke-width=".9" stroke-linecap="square"/><path d="M49.617 60.749V52.81h29.84v7.938h9.946v-.418" fill="none" stroke="#000" stroke-width=".9"/><path d="M89.403 60.749V52.81h29.839v7.938h9.946" fill="none" stroke="#000" stroke-width=".9" stroke-linecap="square"/><text style="line-height:.85;-inkscape-font-specification:Roboto;text-align:center" x="13.111" y="78.566" transform="matrix(1.00123 0 0 .99877 16.593 -9.854)" font-size="7.417" font-family="Roboto" text-anchor="middle" stroke-width=".265"><tspan x="13.111" y="78.566" font-size="6.358" fill="gray">period</tspan></text><path d="M-2.783 76.485h5.968" fill="none" stroke="gray" stroke-width=".6" marker-start="url(#a)" transform="translate(16.593 -9.854)"/><path d="M29.045 76.485h-5.967" fill="none" stroke="gray" stroke-width=".6" marker-start="url(#b)" transform="translate(16.593 -9.854)"/><text style="line-height:1.25;-inkscape-font-specification:'Roboto Bold'" x="-15.875" y="15.102" font-weight="700" font-size="4.939" font-family="Roboto" stroke-width=".265" transform="translate(16.593 -9.854)"><tspan x="-15.875" y="15.102" style="-inkscape-font-specification:'Roboto Bold'">on</tspan></text><text style="line-height:1.25;-inkscape-font-specification:'Roboto Bold'" x="-16.4" y="24.382" font-weight="700" font-size="4.939" font-family="Roboto" stroke-width=".265" transform="translate(16.593 -9.854)"><tspan x="-16.4" y="24.382" style="-inkscape-font-specification:'Roboto Bold'">off</tspan></text><text style="line-height:1.25;-inkscape-font-specification:'Roboto Bold'" x="-15.875" y="39.141" font-weight="700" font-size="4.939" font-family="Roboto" stroke-width=".265" transform="translate(16.593 -9.854)"><tspan x="-15.875" y="39.141" style="-inkscape-font-specification:'Roboto Bold'">on</tspan></text><text style="line-height:1.25;-inkscape-font-specification:'Roboto Bold'" x="-16.4" y="48.421" font-weight="700" font-size="4.939" font-family="Roboto" stroke-width=".265" transform="translate(16.593 -9.854)"><tspan x="-16.4" y="48.421" style="-inkscape-font-specification:'Roboto Bold'">off</tspan></text><text style="line-height:1.25;-inkscape-font-specification:'Roboto Bold'" x="-15.875" y="63.521" font-weight="700" font-size="4.939" font-family="Roboto" stroke-width=".265" transform="translate(16.593 -9.854)"><tspan x="-15.875" y="63.521" style="-inkscape-font-specification:'Roboto Bold'">on</tspan></text><text style="line-height:1.25;-inkscape-font-specification:'Roboto Bold'" x="-16.4" y="72.801" font-weight="700" font-size="4.939" font-family="Roboto" stroke-width=".265" transform="translate(16.593 -9.854)"><tspan x="-16.4" y="72.801" style="-inkscape-font-specification:'Roboto Bold'">off</tspan></text></svg>