<svg xmlns="http://www.w3.org/2000/svg" width="491.067" height="303.883" viewBox="0 0 129.928 80.402"><defs><marker id="a" refX="0" refY="0" orient="auto" overflow="visible"><path d="M-2.308 0l3.46-2v4z" fill="gray" fill-rule="evenodd" stroke="gray" stroke-width=".4pt"/></marker><marker id="b" refX="0" refY="0" orient="auto" overflow="visible"><path d="M-2.308 0l3.46-2v4z" fill="gray" fill-rule="evenodd" stroke="gray" stroke-width=".4pt"/></marker></defs><path d="M129.125 7.322V78.76M89.34 7.322V78.76M49.554 7.322V78.76M9.769 7.322V78.76" fill="none" stroke="gray" stroke-width=".6" stroke-dasharray="1.8,1.8"/><text style="line-height:1.25;-inkscape-font-specification:Roboto" x="-3.574" y="35.905" transform="matrix(1.00123 0 0 .99877 16.53 -2.885)" font-size="9.537" font-family="Roboto" stroke-width=".265"><tspan x="-3.574" y="35.905">50%</tspan></text><path d="M9.769 44.983v-7.938h19.893v7.938h19.892v-.418" fill="none" stroke="#000" stroke-width=".9" stroke-linecap="square"/><path d="M49.554 44.983v-7.938h19.893v7.938H89.34v-.418" fill="none" stroke="#000" stroke-width=".9"/><path d="M89.34 44.983v-7.938h19.893v7.938h19.892" fill="none" stroke="#000" stroke-width=".9" stroke-linecap="square"/><text style="line-height:1.25;-inkscape-font-specification:Roboto" x="-3.273" y="10.119" transform="matrix(1.00123 0 0 .99877 16.53 -2.885)" font-size="9.537" font-family="Roboto" stroke-width=".265"><tspan x="-3.273" y="10.119">25%</tspan></text><path d="M9.769 19.229V11.29h9.946v7.938h29.84v-.418M89.34 19.229V11.29h9.946v7.938h29.84" fill="none" stroke="#000" stroke-width=".9" stroke-linecap="square"/><path d="M49.554 19.229V11.29h9.947v7.938H89.34v-.418" fill="none" stroke="#000" stroke-width=".9"/><text style="line-height:1.25;-inkscape-font-specification:Roboto" x="-3.205" y="61.806" transform="matrix(1.00123 0 0 .99877 16.53 -2.885)" font-size="9.537" font-family="Roboto" stroke-width=".265"><tspan x="-3.205" y="61.806">75%</tspan></text><path d="M9.769 70.893v-7.937h29.839v7.937h9.946v-.418" fill="none" stroke="#000" stroke-width=".9" stroke-linecap="square"/><path d="M49.554 70.893v-7.937h29.84v7.937h9.946v-.418" fill="none" stroke="#000" stroke-width=".9"/><path d="M89.34 70.893v-7.937h29.839v7.937h9.946" fill="none" stroke="#000" stroke-width=".9" stroke-linecap="square"/><text style="line-height:.85;-inkscape-font-specification:Roboto;text-align:center" x="13.111" y="81.745" transform="matrix(1.00123 0 0 .99877 16.53 -2.885)" font-size="7.417" font-family="Roboto" text-anchor="middle" stroke-width=".265"><tspan x="13.111" y="81.745" font-size="6.358" fill="gray">period</tspan></text><path d="M-2.783 79.66h5.968" fill="none" stroke="gray" stroke-width=".6" marker-start="url(#a)" transform="translate(16.53 -2.885)"/><path d="M29.045 79.66h-5.967" fill="none" stroke="gray" stroke-width=".6" marker-start="url(#b)" transform="translate(16.53 -2.885)"/><text style="line-height:1.25;-inkscape-font-specification:Roboto" x="-15.875" y="15.102" font-size="4.939" font-family="Roboto" stroke-width=".265" transform="translate(16.53 -2.885)"><tspan x="-15.875" y="15.102">on</tspan></text><text style="line-height:1.25;-inkscape-font-specification:Roboto" x="-16.4" y="24.382" font-size="4.939" font-family="Roboto" stroke-width=".265" transform="translate(16.53 -2.885)"><tspan x="-16.4" y="24.382">off</tspan></text><text style="line-height:1.25;-inkscape-font-specification:Roboto" x="-15.875" y="40.729" font-size="4.939" font-family="Roboto" stroke-width=".265" transform="translate(16.53 -2.885)"><tspan x="-15.875" y="40.729">on</tspan></text><text style="line-height:1.25;-inkscape-font-specification:Roboto" x="-16.4" y="50.009" font-size="4.939" font-family="Roboto" stroke-width=".265" transform="translate(16.53 -2.885)"><tspan x="-16.4" y="50.009">off</tspan></text><text style="line-height:1.25;-inkscape-font-specification:Roboto" x="-15.875" y="66.696" font-size="4.939" font-family="Roboto" stroke-width=".265" transform="translate(16.53 -2.885)"><tspan x="-15.875" y="66.696">on</tspan></text><text style="line-height:1.25;-inkscape-font-specification:Roboto" x="-16.4" y="75.976" font-size="4.939" font-family="Roboto" stroke-width=".265" transform="translate(16.53 -2.885)"><tspan x="-16.4" y="75.976">off</tspan></text></svg>